<svg width="34" height="48" viewBox="0 0 34 48" fill="none" xmlns="http://www.w3.org/2000/svg">
<path d="M23.632 35.8265L12.8737 24.8954C12.6377 24.6569 12.5054 24.3349 12.5054 23.9994C12.5054 23.6639 12.6377 23.3419 12.8737 23.1034L23.6297 12.1723C23.8655 11.9323 23.9977 11.6093 23.9977 11.2728C23.9977 10.9364 23.8655 10.6134 23.6297 10.3734C23.5145 10.2552 23.3768 10.1613 23.2247 10.0972C23.0727 10.033 22.9093 10 22.7442 10C22.5792 10 22.4158 10.033 22.2638 10.0972C22.1117 10.1613 21.974 10.2552 21.8588 10.3734L11.1028 21.3022C10.396 22.022 10 22.9906 10 23.9994C10 25.0082 10.396 25.9768 11.1028 26.6966L21.8588 37.6254C21.974 37.744 22.1119 37.8382 22.2642 37.9025C22.4165 37.9669 22.5801 38 22.7454 38C22.9107 38 23.0744 37.9669 23.2267 37.9025C23.3789 37.8382 23.5168 37.744 23.632 37.6254C23.8679 37.3854 24 37.0624 24 36.726C24 36.3895 23.8679 36.0665 23.632 35.8265Z" fill="#EFEFEF"/>
</svg>
