<svg width="40" height="40" viewBox="0 0 40 40" fill="none" xmlns="http://www.w3.org/2000/svg">
<path d="M8.22 7.14286C6.79919 7.14286 5.43658 7.70727 4.43192 8.71193C3.42727 9.71659 2.86285 11.0792 2.86285 12.5V13.5714H37.1429V12.5C37.1429 11.0792 36.5784 9.71659 35.5738 8.71193C34.5691 7.70727 33.2065 7.14286 31.7857 7.14286H8.22ZM2.86285 27.5V15.7143H37.1429V27.5C37.1429 28.9208 36.5784 30.2834 35.5738 31.2881C34.5691 32.2927 33.2065 32.8571 31.7857 32.8571H8.22143C6.80062 32.8571 5.43801 32.2927 4.43335 31.2881C3.42869 30.2834 2.86428 28.9208 2.86428 27.5M26.0714 23.5714C25.7873 23.5714 25.5147 23.6843 25.3138 23.8852C25.1129 24.0862 25 24.3587 25 24.6429C25 24.927 25.1129 25.1995 25.3138 25.4005C25.5147 25.6014 25.7873 25.7143 26.0714 25.7143H31.0714C31.3556 25.7143 31.6281 25.6014 31.829 25.4005C32.03 25.1995 32.1429 24.927 32.1429 24.6429C32.1429 24.3587 32.03 24.0862 31.829 23.8852C31.6281 23.6843 31.3556 23.5714 31.0714 23.5714H26.0714Z" fill="black"/>
</svg>
