<svg width="40" height="40" viewBox="0 0 40 40" fill="none" xmlns="http://www.w3.org/2000/svg">
<path d="M19.9166 30C20.5 30 20.9933 29.7983 21.3966 29.395C21.8 28.9917 22.0011 28.4989 22 27.9167C21.9989 27.3344 21.7978 26.8411 21.3966 26.4367C20.9955 26.0322 20.5022 25.8311 19.9166 25.8333C19.3311 25.8356 18.8383 26.0372 18.4383 26.4383C18.0383 26.8394 17.8366 27.3322 17.8333 27.9167C17.83 28.5011 18.0316 28.9944 18.4383 29.3967C18.845 29.7989 19.3378 30 19.9166 30ZM18.4166 23.5833H21.5C21.5 22.6667 21.6044 21.9444 21.8133 21.4167C22.0222 20.8889 22.6122 20.1667 23.5833 19.25C24.3055 18.5278 24.875 17.84 25.2916 17.1867C25.7083 16.5333 25.9166 15.7489 25.9166 14.8333C25.9166 13.2778 25.3472 12.0833 24.2083 11.25C23.0694 10.4167 21.7222 10 20.1666 10C18.5833 10 17.2989 10.4167 16.3133 11.25C15.3278 12.0833 14.64 13.0833 14.25 14.25L17 15.3333C17.1389 14.8333 17.4516 14.2917 17.9383 13.7083C18.425 13.125 19.1678 12.8333 20.1666 12.8333C21.0555 12.8333 21.7222 13.0767 22.1666 13.5633C22.6111 14.05 22.8333 14.5844 22.8333 15.1667C22.8333 15.7222 22.6666 16.2433 22.3333 16.73C22 17.2167 21.5833 17.6678 21.0833 18.0833C19.8611 19.1667 19.1111 19.9861 18.8333 20.5417C18.5555 21.0972 18.4166 22.1111 18.4166 23.5833ZM20 36.6667C17.6944 36.6667 15.5278 36.2294 13.5 35.355C11.4722 34.4806 9.70832 33.2928 8.20832 31.7917C6.70832 30.2906 5.52109 28.5267 4.64665 26.5C3.7722 24.4733 3.33443 22.3067 3.33332 20C3.3322 17.6933 3.76998 15.5267 4.64665 13.5C5.52332 11.4733 6.71054 9.70945 8.20832 8.20834C9.70609 6.70723 11.47 5.52 13.5 4.64667C15.53 3.77334 17.6966 3.33556 20 3.33334C22.3033 3.33111 24.47 3.76889 26.5 4.64667C28.53 5.52445 30.2939 6.71167 31.7917 8.20834C33.2894 9.705 34.4772 11.4689 35.355 13.5C36.2328 15.5311 36.67 17.6978 36.6666 20C36.6633 22.3022 36.2255 24.4689 35.3533 26.5C34.4811 28.5311 33.2939 30.295 31.7917 31.7917C30.2894 33.2883 28.5255 34.4761 26.5 35.355C24.4744 36.2339 22.3078 36.6711 20 36.6667ZM20 33.3333C23.7222 33.3333 26.875 32.0417 29.4583 29.4583C32.0416 26.875 33.3333 23.7222 33.3333 20C33.3333 16.2778 32.0416 13.125 29.4583 10.5417C26.875 7.95834 23.7222 6.66667 20 6.66667C16.2778 6.66667 13.125 7.95834 10.5416 10.5417C7.95831 13.125 6.66665 16.2778 6.66665 20C6.66665 23.7222 7.95831 26.875 10.5416 29.4583C13.125 32.0417 16.2778 33.3333 20 33.3333Z" fill="black"/>
</svg>
