<svg width="147" height="148" viewBox="0 0 147 148" fill="none" xmlns="http://www.w3.org/2000/svg">
<path fill-rule="evenodd" clip-rule="evenodd" d="M70.5012 146.941C31.3 145.368 0 113.087 0 73.5C0 32.906 32.906 0 73.5 0C114.094 0 147 32.906 147 73.5C147 114.094 114.094 147 73.5 147C73.1644 147.002 72.8287 147.002 72.493 147C71.8279 147 71.1627 146.978 70.5012 146.941ZM26.3351 119.879C25.7855 118.3 25.5985 116.619 25.7878 114.958C25.9771 113.298 26.5379 111.702 27.4286 110.288C28.3194 108.874 29.5171 107.679 30.9329 106.791C32.3488 105.903 33.9463 105.346 35.6071 105.16C64.2574 101.989 82.919 102.275 111.43 105.226C113.093 105.399 114.694 105.95 116.112 106.836C117.53 107.721 118.728 108.919 119.613 110.337C120.498 111.755 121.048 113.357 121.221 115.02C121.394 116.683 121.185 118.364 120.61 119.934C132.829 107.571 139.672 90.8825 139.65 73.5C139.65 36.9668 110.033 7.35 73.5 7.35C36.9668 7.35 7.35 36.9668 7.35 73.5C7.35 91.5663 14.5934 107.942 26.3351 119.879Z" fill="#5DC6F8"/>
<path d="M102.899 58.8001C102.899 66.5975 99.802 74.0755 94.2884 79.589C88.7749 85.1026 81.2969 88.2001 73.4995 88.2001C65.7021 88.2001 58.2241 85.1026 52.7105 79.589C47.197 74.0755 44.0995 66.5975 44.0995 58.8001C44.0995 51.0027 47.197 43.5247 52.7105 38.0111C58.2241 32.4976 65.7021 29.4001 73.4995 29.4001C81.2969 29.4001 88.7749 32.4976 94.2884 38.0111C99.802 43.5247 102.899 51.0027 102.899 58.8001Z" fill="#5DC6F8"/>
</svg>
