<svg width="34" height="28" viewBox="0 0 34 28" fill="none" xmlns="http://www.w3.org/2000/svg">
<path d="M13.632 25.8265L2.87367 14.8954C2.63771 14.6569 2.50537 14.3349 2.50537 13.9994C2.50537 13.6639 2.63771 13.3419 2.87367 13.1034L13.6297 2.17229C13.8655 1.93231 13.9977 1.6093 13.9977 1.27284C13.9977 0.93637 13.8655 0.613363 13.6297 0.373378C13.5145 0.255205 13.3768 0.161287 13.2247 0.0971617C13.0727 0.0330366 12.9093 -5.64283e-07 12.7442 -5.57069e-07C12.5792 -5.49855e-07 12.4158 0.0330366 12.2638 0.0971617C12.1117 0.161287 11.974 0.255205 11.8588 0.373378L1.10277 11.3022C0.395988 12.022 -6.56083e-07 12.9906 -6.11986e-07 13.9994C-5.67888e-07 15.0082 0.395988 15.9768 1.10277 16.6966L11.8588 27.6254C11.974 27.744 12.1119 27.8382 12.2642 27.9025C12.4165 27.9669 12.5801 28 12.7454 28C12.9107 28 13.0744 27.9669 13.2267 27.9025C13.3789 27.8382 13.5168 27.744 13.632 27.6254C13.8679 27.3854 14 27.0624 14 26.726C14 26.3895 13.8679 26.0665 13.632 25.8265Z" fill="black"/>
</svg>
