<svg width="40" height="40" viewBox="0 0 40 40" fill="none" xmlns="http://www.w3.org/2000/svg">
<path fill-rule="evenodd" clip-rule="evenodd" d="M19.1838 39.9835C8.5169 39.5555 0 30.7716 0 19.9998C0 8.95389 8.95389 0 19.9998 0C31.0456 0 39.9995 8.95389 39.9995 19.9998C39.9995 31.0456 31.0456 39.9995 19.9998 39.9995C19.9084 40.0001 19.8171 40.0001 19.7258 39.9995C19.5448 39.9995 19.3638 39.9935 19.1838 39.9835ZM7.16591 32.6196C7.01638 32.1902 6.96548 31.7326 7.017 31.2808C7.06851 30.829 7.22112 30.3946 7.46349 30.0099C7.70586 29.6252 8.03176 29.3 8.41702 29.0584C8.80228 28.8169 9.23699 28.6652 9.68888 28.6147C17.4848 27.7517 22.5627 27.8297 30.3206 28.6327C30.7731 28.6798 31.2089 28.8295 31.5948 29.0705C31.9807 29.3115 32.3065 29.6374 32.5473 30.0233C32.7882 30.4093 32.9379 30.8451 32.9849 31.2976C33.0319 31.7501 32.975 32.2074 32.8186 32.6346C36.1435 29.2705 38.0055 24.7296 37.9995 19.9998C37.9995 10.0589 29.9406 1.99998 19.9998 1.99998C10.0589 1.99998 1.99998 10.0589 1.99998 19.9998C1.99998 24.9157 3.97095 29.3716 7.16591 32.6196Z" fill="white"/>
<path d="M27.9997 15.9998C27.9997 18.1215 27.1568 20.1563 25.6565 21.6566C24.1563 23.1569 22.1215 23.9997 19.9998 23.9997C17.8781 23.9997 15.8432 23.1569 14.343 21.6566C12.8427 20.1563 11.9999 18.1215 11.9999 15.9998C11.9999 13.8781 12.8427 11.8433 14.343 10.343C15.8432 8.84275 17.8781 7.9999 19.9998 7.9999C22.1215 7.9999 24.1563 8.84275 25.6565 10.343C27.1568 11.8433 27.9997 13.8781 27.9997 15.9998Z" fill="white"/>
</svg>
