<svg width="40" height="40" viewBox="0 0 40 40" fill="none" xmlns="http://www.w3.org/2000/svg">
<path d="M13.5284 27.5633C13.8917 27.5633 14.1956 27.4406 14.44 27.195C14.6845 26.9494 14.8067 26.6439 14.8067 26.2783C14.8067 25.9128 14.6845 25.6089 14.44 25.3667C14.1956 25.1244 13.89 25.0022 13.5234 25C13.1567 24.9978 12.8522 25.1211 12.61 25.37C12.3678 25.6189 12.2456 25.9239 12.2434 26.285C12.2411 26.6461 12.3645 26.95 12.6134 27.1967C12.8589 27.4411 13.1639 27.5633 13.5284 27.5633ZM13.5284 21.2817C13.8917 21.2817 14.1956 21.1589 14.44 20.9133C14.6845 20.6678 14.8067 20.3622 14.8067 19.9967C14.8067 19.6311 14.6845 19.3272 14.44 19.085C14.1956 18.8428 13.89 18.7206 13.5234 18.7183C13.1567 18.7161 12.8522 18.8389 12.61 19.0867C12.3678 19.3344 12.2456 19.64 12.2434 20.0033C12.2411 20.3667 12.3645 20.6706 12.6134 20.915C12.8589 21.1594 13.1639 21.2817 13.5284 21.2817ZM13.5284 15C13.8917 15 14.1956 14.8767 14.44 14.63C14.6845 14.3833 14.8067 14.0783 14.8067 13.715C14.8067 13.3517 14.6845 13.0478 14.44 12.8033C14.1956 12.5589 13.89 12.4367 13.5234 12.4367C13.1567 12.4367 12.8522 12.5594 12.61 12.805C12.3678 13.0506 12.2456 13.3561 12.2434 13.7217C12.2411 14.0872 12.3645 14.3911 12.6134 14.6333C12.8589 14.8778 13.1639 15 13.5284 15ZM18.6534 27.1167H27.6284V25.45H18.6534V27.1167ZM18.6534 20.8333H27.6284V19.1667H18.6534V20.8333ZM18.6534 14.55H27.6284V12.8833H18.6534V14.55ZM9.35835 33.3333C8.59169 33.3333 7.95169 33.0767 7.43835 32.5633C6.92502 32.05 6.6678 31.4094 6.66669 30.6417V9.35833C6.66669 8.59166 6.92391 7.95166 7.43835 7.43833C7.9528 6.925 8.5928 6.66778 9.35835 6.66666H30.6417C31.4084 6.66666 32.0484 6.92389 32.5617 7.43833C33.075 7.95277 33.3322 8.59277 33.3334 9.35833V30.6417C33.3334 31.4083 33.0767 32.0483 32.5634 32.5617C32.05 33.075 31.4095 33.3322 30.6417 33.3333H9.35835ZM9.35835 31.6667H30.6417C30.8972 31.6667 31.1322 31.56 31.3467 31.3467C31.5611 31.1333 31.6678 30.8983 31.6667 30.6417V9.35833C31.6667 9.10277 31.56 8.86777 31.3467 8.65333C31.1334 8.43889 30.8984 8.33222 30.6417 8.33333H9.35835C9.1028 8.33333 8.8678 8.44 8.65335 8.65333C8.43891 8.86666 8.33224 9.10166 8.33335 9.35833V30.6417C8.33335 30.8972 8.44002 31.1322 8.65335 31.3467C8.86669 31.5611 9.10169 31.6678 9.35835 31.6667Z" fill="black"/>
</svg>
