<svg width="219" height="220" viewBox="0 0 219 220" fill="none" xmlns="http://www.w3.org/2000/svg">
<path d="M42.1119 173.75C37.9144 173.75 34.4104 172.345 31.5999 169.534C28.7894 166.724 27.3811 163.217 27.375 159.013V60.7369C27.375 56.5394 28.7833 53.0354 31.5999 50.2249C34.4165 47.4144 37.9205 46.0061 42.1119 46H176.888C181.086 46 184.59 47.4083 187.4 50.2249C190.211 53.0415 191.619 56.5455 191.625 60.7369V159.013C191.625 163.211 190.22 166.715 187.409 169.525C184.599 172.336 181.092 173.744 176.888 173.75H42.1119ZM109.5 110.924L182.5 63.2006L179.689 55.125L109.5 100.75L39.3105 55.125L36.5 63.2006L109.5 110.924Z" fill="#EFEFEF"/>
</svg>
