<svg width="40" height="40" viewBox="0 0 40 40" fill="none" xmlns="http://www.w3.org/2000/svg">
<path d="M7.69167 31.6667C6.925 31.6667 6.285 31.41 5.77167 30.8967C5.25833 30.3833 5.00111 29.7428 5 28.975V11.025C5 10.2583 5.25722 9.61834 5.77167 9.105C6.28611 8.59167 6.92611 8.33445 7.69167 8.33334H32.3083C33.075 8.33334 33.715 8.59056 34.2283 9.105C34.7417 9.61945 34.9989 10.2594 35 11.025V28.975C35 29.7417 34.7433 30.3817 34.23 30.895C33.7167 31.4083 33.0761 31.6656 32.3083 31.6667H7.69167ZM20 20.1917L33.3333 11.475L32.82 10L20 18.3333L7.18 10L6.66667 11.475L20 20.1917Z" fill="black"/>
</svg>
