<?xml version="1.0" encoding="UTF-8"?>
<svg id="Layer_1" data-name="Layer 1" xmlns="http://www.w3.org/2000/svg" xmlns:xlink="http://www.w3.org/1999/xlink" viewBox="0 0 2542.49 1607.18">
  <defs>
    <style>
      .cls-1, .cls-2, .cls-3, .cls-4, .cls-5, .cls-6, .cls-7, .cls-8, .cls-9, .cls-10, .cls-11, .cls-12, .cls-13, .cls-14, .cls-15, .cls-16, .cls-17, .cls-18, .cls-19 {
        stroke-width: 0px;
      }

      .cls-1, .cls-20 {
        opacity: .48;
      }

      .cls-1, .cls-20, .cls-10, .cls-21 {
        fill: #fe8e9c;
      }

      .cls-22 {
        clip-path: url(#clippath-11);
      }

      .cls-2 {
        fill: #fc476a;
      }

      .cls-3, .cls-23 {
        fill: #1b3d9e;
      }

      .cls-24 {
        clip-path: url(#clippath-2);
      }

      .cls-25, .cls-5 {
        fill: #68a9fd;
      }

      .cls-26, .cls-18 {
        fill: #d4dfff;
      }

      .cls-27 {
        clip-path: url(#clippath-6);
      }

      .cls-4, .cls-28 {
        fill: #97c7fa;
      }

      .cls-29, .cls-19 {
        fill: #7db9f9;
      }

      .cls-6 {
        opacity: .19;
      }

      .cls-6, .cls-11, .cls-14 {
        fill: #6880e4;
      }

      .cls-7 {
        fill: #1c056d;
      }

      .cls-30 {
        clip-path: url(#clippath-7);
      }

      .cls-31 {
        clip-path: url(#clippath-1);
      }

      .cls-32 {
        clip-path: url(#clippath-4);
      }

      .cls-8 {
        opacity: .21;
      }

      .cls-8, .cls-9 {
        fill: #fff;
      }

      .cls-12 {
        fill: #f6ab36;
      }

      .cls-13 {
        fill: #e57492;
      }

      .cls-14 {
        opacity: .34;
      }

      .cls-33 {
        clip-path: url(#clippath-9);
      }

      .cls-34 {
        clip-path: url(#clippath);
      }

      .cls-15 {
        fill: #f9c438;
      }

      .cls-16 {
        opacity: .24;
      }

      .cls-16, .cls-17 {
        fill: #f6f9ff;
      }

      .cls-35 {
        clip-path: url(#clippath-3);
      }

      .cls-36 {
        clip-path: url(#clippath-8);
      }

      .cls-37 {
        clip-path: url(#clippath-5);
      }

      .cls-38 {
        clip-path: url(#clippath-10);
      }
    </style>
    <clipPath id="clippath">
      <polygon class="cls-18" points="531.89 1328.66 1114.91 1328.66 1013.81 364.73 430.79 364.73 531.89 1328.66"/>
    </clipPath>
    <clipPath id="clippath-1">
      <path class="cls-1" d="M452.26,776.51s11.26,233.29,19.41,237.22c8.15,3.93,296.05,9.96,300.84-1.84,4.78-11.8-8.14-220.69-18.08-226.15-9.95-5.45-302.8-21.86-302.16-9.23Z"/>
    </clipPath>
    <clipPath id="clippath-2">
      <path class="cls-5" d="M628.16,719.86s60.73-128.63,153.97-132.79c93.24-4.16,135.84,142.44,135.84,142.44l-131.09.81-158.72-10.46Z"/>
    </clipPath>
    <clipPath id="clippath-3">
      <path class="cls-4" d="M812.8,577.74s64.36,14.14,109.37,99.16c45.01,85.02,60.01,140.13,129.19,218.43,69.18,78.3,157.21,196.66,172.79,192.49,15.58-4.17,65.01-24.62,66.68-28.78,1.67-4.17,38.6-122.74,46.93-129.41,8.34-6.67,132.03-56.93,130.36-60.17-1.67-3.24-207.56-239.23-222.56-249.23-15-10-80.47-74.75-130.65-75.05-50.18-.3-185.6-4.91-302.12,32.57Z"/>
    </clipPath>
    <clipPath id="clippath-4">
      <path class="cls-4" d="M1162.29,282.27s24.49-90.36,64.6-120.12c40.11-29.76,65.99-36.23,95.32-54.35s78.93-54.35,80.22-51.76,25.45,62.54,29.33,64.7,66.42,37.52,67.28,40.54-156.57,55.64-170.8,86.26c-14.23,30.62-33.21,101.36-37.09,103.08-3.88,1.73-75.11-17.42-79.85-20.44-4.74-3.02-52.86-47.05-49.01-47.93Z"/>
    </clipPath>
    <clipPath id="clippath-5">
      <path class="cls-10" d="M1505.62,819.87s-20.2,13.93-21.5,14.19c-1.3.26-57.14-.4-47.03,9.13,2.67,2.52,39.35,9.75,39.35,9.75l21.05,23.94,11.52-8.81,21.58-13.18-24.97-35.03Z"/>
    </clipPath>
    <clipPath id="clippath-6">
      <path class="cls-3" d="M2047.55,1409.51l-105.26-434.66c19.87-75.72,37.78-166.64,19.49-218.61l-202.4,10.56s-22.96,102.28-17.38,251.26c1.98,52.83,46.1,423.42,46.1,423.42h96.71s-5.2-133.65-7.6-224.54l80.71,224.54,89.63-31.96Z"/>
    </clipPath>
    <clipPath id="clippath-7">
      <path class="cls-19" d="M1978.83,446.67c-19.45-39.12-60.11-83.74-107.67-90.99,0,0-.61,41.64-1.58,83.44-24.05,58.26-66.45,158.02-77.43,164.73-15.58,9.51-162.41-59.01-162.41-59.01l-38.03,88.68s170.16,87.65,223.43,97.55c18.85,3.5,45.47-18.46,71.77-50.24,8.76,57.16,17.78,105.92,20.78,105.92,6.61,0,82.16-15.11,85-20.78,2.85-5.67,9.87-271.58-13.86-319.29Z"/>
    </clipPath>
    <clipPath id="clippath-8">
      <path class="cls-10" d="M1843.16,197.88c-9.19-10.27-42.05-20.92-68.2-15.32-14.74,3.16-26,15.1-28.82,29.91-6.37,33.52-18.69,112.55,5.21,119.13,10.64,2.93,23,.09,34.79-5.42,2.95,20.22,13.77,66.16,15.67,72.29,2.67,8.62,75.03-29.54,69.36-42.79-3.85-8.98-39.71-68.25-39.71-68.25,5.3-13.88,24.49-75.27,11.7-89.55Z"/>
    </clipPath>
    <clipPath id="clippath-9">
      <path class="cls-3" d="M1814.57,1484.51s-102.05,50.45-104.2,56.19c-1.54,4.11-2.72,13.01-3.26,17.72-.18,1.6,1.13,2.97,2.74,2.86,23.03-1.66,167.88-12.2,170.52-14.84,2.87-2.87-2.15-51.29-3.95-54.87-1.79-3.59-9.58-8.5-9.58-8.5,0,0-21.53,22.21-52.27,1.44Z"/>
    </clipPath>
    <clipPath id="clippath-10">
      <path class="cls-3" d="M1992.18,1468.08s-80.1,80.89-80.27,87.02c-.12,4.39,1.66,13.18,2.68,17.82.35,1.57,2.04,2.44,3.52,1.81,21.24-9.06,154.79-66.12,156.43-69.48,1.78-3.65-18.71-47.8-21.57-50.61-2.86-2.81-11.82-4.92-11.82-4.92,0,0-13.14,28-48.96,18.36Z"/>
    </clipPath>
    <clipPath id="clippath-11">
      <path class="cls-4" d="M1606.01,385.76c-12.31-7.72-55.11-44.27-68.42-46.82-13.31-2.55-87.69-12.96-84.89-16.26,2.8-3.29,17.38-22.58,19.42-27.63,2.04-5.05.71-41.32,7.8-40.72s71.26,13.6,86.14,19.92,63.85,62.53,65.84,68.23c1.99,5.7-20.2,17.54-20.91,21.24-.71,3.7-4.99,22.03-4.99,22.03Z"/>
    </clipPath>
  </defs>
  <path class="cls-17" d="M2542.15,877.76c6.2-214.34-72.5-444.51-194.96-588.38-175.2-205.82-455.24-266.09-714.43-248.42-215.72,14.7-433.83,77.22-650.48,43.38C839.48,62.03,705.08-4.39,558.58.23,130.91,13.73-84.93,490,31.1,867.03c98.77,320.98,427.44,398.48,727.34,391.11,110.01-2.7,214.07-9.01,323.55,1.14,137.69,12.76,273.78,39.37,407.46,74.35,297.27,77.79,709.07,179.12,935.84-102.68,77.27-96.02,113.06-221.62,116.86-353.18Z"/>
  <g>
    <g>
      <path class="cls-11" d="M514.32,1451.56h643.96c16.41,0,28.32-13.31,26.6-29.72l-116.07-1106.6c-1.72-16.41-16.42-29.72-32.84-29.72H392.01c-16.41,0-28.32,13.31-26.6,29.72l116.07,1106.6c1.72,16.41,16.42,29.72,32.84,29.72Z"/>
      <g>
        <polygon class="cls-26" points="531.89 1328.66 1114.91 1328.66 1013.81 364.73 430.79 364.73 531.89 1328.66"/>
        <g class="cls-34">
          <path class="cls-6" d="M517.92,347.26s107.8,708.18,622.46,814.7l35.79,202.33H475.44l-106.65-1016.78,149.13-.24Z"/>
        </g>
      </g>
      <path class="cls-3" d="M764.14,1420.89h137.87c9.42,0,16.26-7.64,15.27-17.06l-2.36-22.48c-.99-9.42-9.43-17.06-18.85-17.06h-137.87c-9.42,0-16.26,7.64-15.27,17.06l2.36,22.48c.99,9.42,9.43,17.06,18.85,17.06Z"/>
    </g>
    <g>
      <path class="cls-10" d="M782.15,698.4c-.47-10.62,6.96-19.63,16.4-19.87,79.32-2.08,405.44-9.22,409.76,13.52,4.92,25.9,24.7,373.16,11.19,379.18-13.51,6.02-407.41,3.51-414.75-5.3-6.34-7.6-19.19-290.19-22.6-367.54Z"/>
      <path class="cls-10" d="M781.47,688.85s-2.45-10.36-20.44-14.79c-17.98-4.43-355.93-40.64-386.57-11.81-30.64,28.83,24.12,411.23,40.56,415.35,16.44,4.12,381.08.86,394-12.12,12.92-12.98-27.55-376.63-27.55-376.63Z"/>
      <path class="cls-2" d="M1175.14,726.15s-374.45,5.71-391.54,3.63c-17.09-2.08-375.11-23.84-379.92-19.36-4.82,4.48,363.31,38.18,379.73,35.41,16.42-2.76,415.52-4.9,391.74-19.69Z"/>
      <path class="cls-2" d="M414.77,734.9s367.46,22.94,369.9,28.21c2.43,5.26,26.51,263.01,17.2,270.51-9.31,7.5-350.16,11.24-355.23,7.19-5.07-4.05-45.3-281.05-31.87-305.91Z"/>
      <path class="cls-2" d="M391.32,655.65s-12.32,38.77-7.86,110.42,47.83,312.59,47.83,312.59l-16.26-1.06s-19.45-44.66-31.86-151.4c-12.42-106.74-28.63-227.57-8.7-263.95,0,0,5.29-6.33,16.85-6.6Z"/>
      <path class="cls-2" d="M1196.4,685.69s6.38,3.83,9.77,47.92c3.38,44.09,11.36,285.82,7.35,312.36-4.01,26.53-7.44,26.74-7.44,26.74,0,0,15.64,2.07,16.78-2.1,1.14-4.17,6.37-48.86,2.92-95.63-3.45-46.77-3.99-182.82-7.88-198.33-3.89-15.51,4.09-92.65-21.51-90.96Z"/>
      <path class="cls-2" d="M806.9,761.3s380.58-9.03,381.89-2.75c1.31,6.28,5.76,55.46,3.47,62.66-2.29,7.2-378.7,12.95-382.49,6.48-3.79-6.47-11.26-59.38-2.87-66.39Z"/>
      <g>
        <path class="cls-10" d="M768.03,775.89l-.16-1.66c-.43-.04-.98-.08-1.65-.14l.16-1.99c1.25.1,2.09.17,2.51.22l.82.08.31,3.3-1.99.19Z"/>
        <path class="cls-10" d="M527.95,1031.42h-2.17v-2h4.99s0,2,0,2h-2.83ZM535.78,1031.42v-2s4.99,0,4.99,0v2s-4.99,0-4.99,0ZM520.79,1031.42h-5s0-2.01,0-2.01h4.99s0,2.01,0,2.01ZM545.77,1031.39v-2s4.99-.02,4.99-.02v2s-4.99.02-4.99.02ZM510.8,1031.39l-5-.02v-2s5,.02,5,.02v2ZM555.77,1031.36v-2s4.99-.02,4.99-.02v2s-4.99.02-4.99.02ZM500.81,1031.35l-5-.03v-2s5.01.03,5.01.03v2ZM565.77,1031.31v-2s4.99-.03,4.99-.03v2s-4.99.03-4.99.03ZM490.81,1031.28c-1.72-.02-3.39-.03-5-.05l.02-2c1.61.02,3.27.04,4.99.05l-.02,2ZM575.76,1031.25v-2s4.98-.04,4.98-.04l.02,2-5,.04ZM585.76,1031.17l-.02-2,5-.04.02,2-5,.04ZM480.82,1031.16c-1.75-.02-3.42-.05-5-.08l.03-2c1.58.03,3.25.05,4.99.08l-.03,2ZM595.76,1031.09l-.02-2,5-.05.02,2-5,.05ZM470.82,1030.99c-1.83-.04-3.5-.08-5-.13l.06-2c1.5.04,3.16.09,4.99.13l-.04,2ZM605.75,1030.99l-.02-2,4.91-.05.1,1-.07,1-4.91.05ZM615.75,1030.87l-.02-2,5.01-.06.03,2-5.02.06ZM625.77,1030.75l-.03-2,5-.07.03,2-5,.07ZM460.8,1030.66c-3.6-.18-4.23-.35-4.56-.5-.47-.22-.73-.7-.9-1.09l1.83-.81s.04.09.06.12c.31.05,1.22.17,3.68.29l-.1,2ZM635.76,1030.6l-.03-2,4.99-.08.03,2-4.99.08ZM645.73,1030.45l-.03-2,5-.08.03,2-5,.08ZM655.72,1030.28l-.04-2,5-.09.04,2-5,.09ZM665.72,1030.09l-.04-2,5-.1.04,2-5,.1ZM675.71,1029.88l-.04-2,4.99-.11.05,2-5,.11ZM685.71,1029.65l-.05-2,4.99-.12.05,2-5,.12ZM695.71,1029.4l-.05-2,5-.14.06,2-5,.14ZM705.7,1029.12l-.06-2,4.99-.15.06,2-5,.15ZM715.69,1028.81l-.07-2,5-.17.07,2-5,.17ZM725.69,1028.47l-.07-2c1.69-.06,3.35-.12,4.99-.19l.08,2c-1.64.06-3.31.13-5,.19ZM735.69,1028.08l-.08-2c1.69-.07,3.36-.14,4.99-.22l.09,2c-1.64.07-3.3.15-5,.22ZM745.68,1027.63l-.1-2c1.7-.08,3.37-.17,4.99-.25l.11,2c-1.62.09-3.29.17-5,.25ZM755.68,1027.1l-.12-2c1.72-.1,3.38-.2,4.99-.3l.13,2c-1.61.1-3.28.21-5,.3ZM765.68,1026.45l-.15-1.99c1.75-.13,3.41-.26,4.98-.39l.17,1.99c-1.58.13-3.24.27-5,.39ZM775.68,1025.59l-.2-1.99c1.84-.19,3.5-.39,4.94-.58l.27,1.98c-1.47.2-3.15.4-5.01.59ZM785.73,1024.11l-.47-1.94c1.37-.33,1.84-.59,1.98-.68.04-.17.12-.57.18-1.48l2,.12c-.07,1.09-.17,1.76-.35,2.19-.31.78-1.28,1.3-3.34,1.79ZM453.98,1024.01c-.29-1.4-.6-3.07-.93-4.97l1.97-.34c.33,1.88.63,3.53.92,4.91l-1.96.4ZM787.48,1015.08c-.02-1.46-.07-3.13-.13-4.99l2-.07c.07,1.88.11,3.56.14,5.03l-2,.03ZM452.23,1014.08c-.25-1.55-.5-3.21-.76-4.96l1.98-.29c.26,1.75.51,3.4.75,4.94l-1.98.31ZM787.13,1005.1c-.08-1.57-.16-3.24-.26-4.99l2-.11c.1,1.76.18,3.43.26,5.01l-2,.1ZM450.76,1004.16c-.22-1.59-.45-3.25-.69-4.96l1.98-.27c.23,1.71.46,3.36.69,4.95l-1.98.28ZM786.58,995.11c-.1-1.61-.2-3.27-.31-4.99l2-.13c.11,1.72.21,3.39.31,5l-2,.12ZM449.4,994.23c-.21-1.61-.43-3.27-.65-4.97l1.98-.25c.22,1.69.43,3.35.65,4.96l-1.98.26ZM785.95,985.13c-.11-1.62-.22-3.29-.34-4.99l2-.14c.12,1.7.23,3.37.34,4.99l-2,.13ZM448.13,984.3c-.2-1.62-.41-3.28-.62-4.97l1.99-.24c.21,1.68.41,3.34.62,4.96l-1.98.25ZM785.26,975.15l-.36-4.99,2-.15.36,4.99-2,.14ZM446.9,974.36l-.6-4.97,1.99-.24.6,4.96-1.99.24ZM784.53,965.18l-.38-4.99,1.99-.15.38,4.99-1.99.15ZM445.72,964.43l-.58-4.97,1.99-.23.58,4.97-1.99.23ZM783.77,955.21l-.39-4.98,1.99-.16.39,4.99-1.99.15ZM444.57,954.49l-.56-4.97,1.99-.22.56,4.97-1.99.23ZM782.98,945.24l-.4-4.98,1.99-.16.4,4.99-1.99.16ZM443.45,944.55l-.55-4.97,1.99-.22.55,4.97-1.99.22ZM782.18,935.28l-.41-4.98,1.99-.16.41,4.98-1.99.16ZM442.36,934.6l-.54-4.97,1.99-.21.54,4.97-1.99.21ZM781.36,925.31l-.41-4.98,1.99-.17.41,4.98-1.99.16ZM441.3,924.66l-.53-4.97,1.99-.21.53,4.97-1.99.21ZM780.53,915.35l-.42-4.98,1.99-.17.42,4.98-1.99.17ZM440.25,914.71l-.51-4.97,1.99-.2.51,4.97-1.99.21ZM779.69,905.39l-.43-4.98,1.99-.17.43,4.98-1.99.17ZM439.23,904.78l-.5-4.97,1.99-.2.5,4.97-1.99.2ZM778.84,895.41l-.43-4.98,1.99-.17.43,4.98-1.99.17ZM438.23,894.82l-.49-4.99,1.99-.2.49,4.99-1.99.2ZM777.97,885.46l-.43-4.96,1.99-.17.43,4.96-1.99.17ZM437.25,884.85l-.48-4.98,1.99-.19.48,4.97-1.99.19ZM777.1,875.51l-.44-4.98,1.99-.18.44,4.98-1.99.18ZM436.29,874.9l-.47-4.98,1.99-.19.47,4.98-1.99.19ZM776.23,865.55l-.44-4.98,1.99-.18.44,4.98-1.99.18ZM435.35,864.94l-.46-4.98,1.99-.18.46,4.98-1.99.18ZM775.34,855.59l-.45-4.98,1.99-.18.45,4.98-1.99.18ZM434.44,854.98l-.45-4.98,1.99-.18.45,4.98-1.99.18ZM774.45,845.63l-.45-4.98,1.99-.18.45,4.98-1.99.18ZM433.56,845.02l-.43-4.98,1.99-.17.43,4.98-1.99.17ZM773.55,835.67l-.45-4.98,1.99-.18.45,4.98-1.99.18ZM432.7,835.05l-.42-4.98,1.99-.17.42,4.98-1.99.17ZM772.64,825.72l-.45-4.98,1.99-.18.46,4.98-1.99.18ZM431.87,825.08c-.14-1.68-.27-3.34-.4-4.99l1.99-.16c.13,1.64.26,3.3.4,4.98l-1.99.16ZM771.73,815.75l-.46-4.98,1.99-.18.46,4.98-1.99.18ZM431.08,815.11c-.13-1.69-.26-3.35-.38-4.99l1.99-.15c.12,1.64.25,3.3.38,4.98l-1.99.15ZM770.82,805.79l-.46-4.98,1.99-.18.46,4.98-1.99.18ZM430.34,805.13c-.12-1.69-.24-3.36-.35-4.99l2-.14c.11,1.63.23,3.3.35,4.99l-2,.14ZM769.89,795.83l-.46-4.99,1.99-.19.46,4.99-1.99.19ZM429.65,795.14c-.11-1.71-.22-3.37-.32-5l2-.12c.1,1.62.21,3.29.32,4.99l-2,.13ZM768.97,785.85l-.47-4.99,1.99-.19.47,5-1.99.19ZM429.04,785.14c-.1-1.73-.19-3.39-.27-5l2-.1c.08,1.61.17,3.27.27,4.99l-2,.11ZM428.54,775.13c-.07-1.77-.13-3.44-.18-5.02l2-.06c.05,1.57.11,3.24.18,5l-2,.08ZM762.71,773.81l-4.99-.38.15-1.99,4.99.38-.16,1.99ZM752.72,773.05l-4.99-.37.15-1.99,5,.37-.15,1.99ZM742.73,772.31l-4.99-.37.15-1.99,4.99.37-.15,1.99ZM732.75,771.58l-4.99-.36.14-1.99,4.99.36-.15,1.99ZM722.77,770.86l-4.99-.36.14-1.99,4.99.36-.14,1.99ZM712.8,770.14l-4.99-.36.14-1.99,4.99.36-.14,1.99ZM702.82,769.43l-4.99-.35.14-1.99,4.99.35-.14,1.99ZM692.85,768.72l-4.99-.35.14-1.99,4.99.35-.14,1.99ZM682.87,768.02l-4.99-.35.14-1.99,4.99.35-.14,2ZM672.9,767.33l-4.99-.35.14-2,4.99.35-.14,2ZM662.93,766.64l-4.99-.34.14-2,4.99.34-.14,2ZM652.95,765.95l-4.99-.34.14-2,4.99.34-.14,2ZM642.98,765.27l-4.99-.34.14-2,4.99.34-.14,2ZM428.25,765.09c0-.75-.01-1.47-.01-2.16,0-1.03.01-1.99.03-2.87l2,.05c-.02.86-.03,1.81-.03,2.82,0,.68,0,1.39.01,2.14l-2,.02ZM633.01,764.59l-4.99-.34.13-2,4.99.34-.13,2ZM623.04,763.92l-4.99-.33.13-2,4.99.33-.13,2ZM613.06,763.26l-4.99-.33.13-2,4.99.33-.13,2ZM603.09,762.6l-5.01-.33.13-2,5.01.33-.13,2ZM593.08,761.95l-4.99-.32.13-2,4.99.32-.13,2ZM583.11,761.3l-4.97-.32.13-2,4.97.32-.13,2ZM573.15,760.66l-4.99-.32.13-2,4.99.32-.13,2ZM563.18,760.03l-4.99-.31.12-2,4.99.31-.13,2ZM553.2,759.41l-4.99-.31.12-2,4.99.31-.12,2ZM543.22,758.8l-4.99-.3.12-2,4.99.3-.12,2ZM533.25,758.2l-4.99-.3.12-2,4.99.3-.12,2ZM523.27,757.61l-4.99-.29.11-2,4.99.29-.12,2ZM513.29,757.03l-4.99-.28.11-2,4.99.28-.11,2ZM503.31,756.48l-4.99-.27.11-2,4.99.27-.11,2ZM493.32,755.94l-4.99-.26.1-2,5,.26-.11,2ZM483.34,755.43l-4.99-.24.1-2,5,.25-.1,2ZM430.61,755.27l-1.97-.33c.21-1.28.5-1.95,1.01-2.3.34-.24.93-.51,3.67-.66l.11,2c-1.69.09-2.34.22-2.57.29-.05.13-.15.42-.25,1ZM430.9,754.18h0ZM473.35,754.95c-1.71-.08-3.37-.15-5-.22l.09-2c1.63.07,3.29.15,5,.22l-.09,2ZM463.36,754.52c-1.72-.07-3.39-.13-5-.19l.07-2c1.61.06,3.28.12,5,.19l-.08,2ZM453.36,754.15c-1.75-.06-3.42-.1-5-.14l.05-2c1.58.04,3.25.09,5.01.15l-.06,2ZM443.36,753.9c-1.6-.02-3.06-.04-4.39-.04h-.61s0-2,0-2h.61c1.34,0,2.81.01,4.42.04l-.03,2Z"/>
      </g>
      <path class="cls-2" d="M816.6,842.1c-2.22.15-3.9,2.04-3.8,4.26,1.26,27.86,9.17,195.53,17.43,194.62,9.01-1,363.02,6.56,365.67.11,2.65-6.45.39-189.7-9.52-203.53,0,0-323.97,1.41-369.78,4.54Z"/>
      <path class="cls-2" d="M781.47,688.85l9.14,86.22s-8.67-91.14,7.94-96.54c0,0-11.7-.22-17.08,10.32Z"/>
      <path class="cls-2" d="M806.05,1066.92s5.41-7.21,5.45-18.26-1.15-42.21-1.15-42.21c0,0,8.66,53.46,1.64,61.28l-5.94-.81Z"/>
      <path class="cls-10" d="M1120.73,1034.97h-5s0-2,0-2h5v2ZM1125.73,1034.96v-2s5,0,5,0v2s-5,0-5,0ZM1110.72,1034.96h-5s0-2.01,0-2.01h5s0,2.01,0,2.01ZM1135.73,1034.94v-2s4.99-.02,4.99-.02v2s-4.99.02-4.99.02ZM1100.71,1034.94h-5s0-2.01,0-2.01h5s0,2.01,0,2.01ZM1090.7,1034.91l-5-.02v-2s5.01.02,5.01.02v2ZM1145.74,1034.9v-2c1.7,0,3.37-.02,4.99-.03l.02,2c-1.62.01-3.29.02-5,.03ZM1080.7,1034.87l-5-.02v-2s5.01.02,5.01.02v2ZM1070.69,1034.82l-5-.03v-2s5.02.03,5.02.03v2ZM1155.75,1034.82l-.02-2c1.73-.02,3.4-.04,5-.05l.02,2c-1.6.02-3.27.04-5,.05ZM1060.68,1034.77l-5-.03v-2s5.02.03,5.02.03v2ZM1050.67,1034.71l-5-.03v-2s5.02.03,5.02.03v2ZM1165.76,1034.7l-.03-2c1.77-.03,3.43-.06,5-.09l.04,2c-1.57.03-3.24.07-5.01.09ZM1040.66,1034.64l-5-.04.02-2,5,.04v2ZM1030.65,1034.57l-5-.04.02-2,5,.04-.02,2ZM1020.65,1034.49l-5.02-.04.02-2,5.02.04-.02,2ZM1175.77,1034.48l-.06-2c1.9-.06,3.57-.12,4.98-.19l.1,2c-1.42.07-3.1.13-5.02.19ZM1010.61,1034.4l-5.01-.04.02-2,5.01.04-.02,2ZM1000.6,1034.32l-4.99-.05.02-2,4.99.05-.02,2ZM990.62,1034.23l-5-.05.02-2,5,.05-.02,2ZM980.61,1034.13l-5-.05.02-2,5,.05-.02,2ZM970.6,1034.03l-5-.05.02-2,5,.05-.02,2ZM960.6,1033.92l-5-.05.02-2,5,.05-.02,2ZM1185.92,1033.85l-.37-1.87s-.04.05-.04.06c0-.01.02-.04.04-.08v-.07s.01,0,.03,0c.11-.32.32-1.21.51-3.58l1.99.16c-.32,4.04-.77,4.69-1.24,5.04-.21.16-.47.26-.92.34ZM950.59,1033.81l-5-.06.02-2,5,.06-.02,2ZM940.58,1033.7l-5-.06.02-2,5,.06-.02,2ZM930.57,1033.58l-5-.06.02-2,5,.06-.02,2ZM920.56,1033.46l-5.01-.06.03-2,5,.06-.02,2ZM910.55,1033.33l-5.01-.07.03-2,5,.07-.03,2ZM900.54,1033.19l-5.01-.07.03-2,5,.07-.03,2ZM890.53,1033.05l-5.01-.07.03-2,5.01.07-.03,2ZM880.52,1032.9l-5.01-.08.03-2,5.01.08-.03,2ZM870.5,1032.74l-5.01-.08.04-2,5.01.08-.03,2ZM860.48,1032.57l-5.01-.1.04-2,5.01.1-.04,2ZM850.44,1032.36c-2.01-.05-3.7-.09-5.03-.13l.06-2c1.33.04,3.01.08,5.02.13l-.05,2ZM840.19,1030.32c-.38-1.04-.76-2.71-1.15-5.08l1.97-.33c.37,2.22.73,3.81,1.06,4.73l-1.88.68ZM1188.34,1023.42l-2-.07c.05-1.5.09-3.17.11-4.98l2,.03c-.03,1.82-.06,3.5-.11,5.02ZM838.31,1020.23c-.2-1.53-.4-3.21-.6-5.01l1.99-.22c.2,1.79.4,3.45.6,4.97l-1.98.26ZM1188.49,1013.39h-2s0-1.58,0-1.58c0-1.11,0-2.25,0-3.42h2c0,1.17,0,2.31,0,3.42v1.58ZM837.18,1010.22c-.16-1.6-.32-3.27-.48-5l1.99-.18c.16,1.73.32,3.39.48,4.99l-1.99.2ZM1186.44,1003.38c-.02-1.62-.04-3.29-.07-5l2-.03c.03,1.72.05,3.39.07,5.01l-2,.02ZM836.26,1000.22c-.14-1.62-.28-3.29-.42-5l1.99-.16c.14,1.71.28,3.37.42,4.99l-1.99.17ZM1186.29,993.37c-.03-1.64-.07-3.3-.1-5l2-.04c.04,1.7.07,3.37.11,5.01l-2,.04ZM835.44,990.22c-.13-1.64-.25-3.3-.38-5l1.99-.15c.13,1.69.25,3.36.38,4.99l-1.99.15ZM1186.07,983.36c-.04-1.65-.09-3.31-.13-5l2-.06c.05,1.69.09,3.36.13,5.01l-2,.05ZM834.7,980.22c-.12-1.65-.24-3.31-.35-5l2-.14c.12,1.68.23,3.35.35,5l-2,.14ZM1185.79,973.35c-.05-1.65-.1-3.32-.16-5l2-.06c.05,1.68.11,3.35.16,5.01l-2,.06ZM834.01,970.21l-.33-5,2-.13.33,5-2,.13ZM1185.47,963.35l-.17-5,2-.07.17,5.01-2,.07ZM833.35,960.21l-.31-5,2-.12.31,5-2,.13ZM1185.11,953.34l-.19-4.99,2-.08.19,4.99-2,.07ZM832.73,950.21l-.3-5,2-.12.3,5-2,.12ZM1184.72,943.36l-.21-5.01,2-.08.21,5.01-2,.08ZM832.13,940.19l-.29-5,2-.11.29,5-2,.12ZM1184.3,933.36l-.22-5,2-.09.22,5-2,.09ZM831.56,930.2l-.28-5,2-.11.28,5-2,.11ZM1183.85,923.35l-.24-5,2-.1.24,5-2,.09ZM831.01,920.19l-.27-5,2-.11.27,5-2,.11ZM1183.37,913.35l-.25-5,2-.1.25,5-2,.1ZM830.47,910.19l-.26-5,2-.1.26,5-2,.11ZM1182.85,903.36l-.27-5,2-.11.27,5-2,.11ZM829.95,900.18l-.25-5.01,2-.1.25,5.01-2,.1ZM1182.3,893.36c-.1-1.69-.2-3.36-.29-5l2-.12c.1,1.64.2,3.31.29,5l-2,.12ZM829.45,890.16l-.25-5.01,2-.1.25,5.01-2,.1ZM1181.7,883.37c-.11-1.71-.21-3.37-.32-5l2-.13c.11,1.63.21,3.29.32,5l-2,.12ZM828.95,880.14l-.24-5.01,2-.1.24,5.01-2,.1ZM1181.04,873.38c-.12-1.73-.24-3.4-.36-4.99l1.99-.15c.12,1.6.24,3.27.36,5l-2,.14ZM828.47,870.12l-.23-5.02,2-.09.23,5.02-2,.09ZM1180.29,863.39c-.15-1.78-.29-3.45-.43-4.99l1.99-.18c.14,1.54.29,3.22.43,5.01l-1.99.16ZM828.01,860.07l-.23-5.07,2-.09.23,5.07-2,.09ZM831.17,854.77l-.45-1.95c1.21-.28,2.91-.56,5.06-.83l.25,1.98c-2.08.26-3.72.53-4.86.8ZM840.99,853.43l-.19-1.99c1.54-.15,3.21-.29,5.01-.44l.16,1.99c-1.79.14-3.45.29-4.98.43ZM1179.36,853.43c-.24-2.14-.47-3.79-.67-4.9l1.97-.37c.22,1.16.45,2.86.7,5.05l-1.99.22ZM850.96,852.63l-.14-2c1.6-.11,3.27-.22,5.01-.33l.12,2c-1.74.11-3.4.22-4.99.33ZM860.95,852.01l-.11-2c1.62-.09,3.29-.18,5.01-.27l.1,2c-1.71.09-3.38.18-5,.27ZM870.94,851.49l-.1-2c1.63-.08,3.3-.16,5-.23l.09,2c-1.7.08-3.37.16-5,.23ZM880.94,851.04l-.08-2,5-.21.08,2-5,.21ZM890.94,850.63l-.08-2,5-.19.07,2-5,.19ZM900.95,850.27l-.07-2,5-.17.07,2-5,.17ZM910.95,849.94l-.07-2,5-.16.06,2-5,.16ZM920.95,849.63l-.06-2,5-.15.06,2-5,.15ZM930.95,849.34l-.06-2,5-.13.05,2-5,.13ZM940.96,849.08l-.05-2,5-.13.05,2-5,.13ZM950.96,848.83l-.05-2,5-.12.05,2-5,.12ZM960.96,848.6l-.04-2,5-.11.04,2-5,.11ZM970.97,848.38l-.04-2,5-.1.04,2-5,.1ZM980.98,848.18l-.04-2,5-.1.04,2-5,.1ZM990.98,847.99l-.04-2,5-.09.04,2-5,.09ZM1000.98,847.81l-.03-2,5.02-.08.03,2-5.02.08ZM1011.01,847.64l-.03-2,5-.08.03,2-5,.08ZM1021.01,847.49l-.03-2,4.99-.07.03,2-4.99.07ZM1031.01,847.34l-.03-2,5-.07.03,2-5,.07ZM1041.01,847.21l-.03-2,5-.06.02,2-5,.06ZM1176.03,847.14c-1.25-.08-2.92-.14-4.97-.21l.06-2c2.07.06,3.76.13,5.03.21l-.12,2ZM1051.02,847.09l-.02-2,5-.06.02,2-5,.06ZM1061.02,846.97l-.02-2,5-.05.02,2-5,.05ZM1071.03,846.87l-.02-2,5-.05.02,2-5,.05ZM1166.07,846.81c-1.54-.03-3.21-.06-5-.08l.03-2c1.79.03,3.46.05,5.01.08l-.04,2ZM1081.04,846.78l-.02-2,5-.04.02,2-5,.04ZM1091.05,846.71v-2s4.99-.03,4.99-.03v2s-4.99.03-4.99.03ZM1156.08,846.66c-1.6-.02-3.26-.03-5-.04v-2c1.75.01,3.42.03,5.02.04l-.02,2ZM1101.06,846.64v-2s5-.03,5-.03v2s-5,.03-5,.03ZM1111.07,846.6v-2s5-.02,5-.02v2s-5,.02-5,.02ZM1146.08,846.59l-5-.02v-2s5.01.02,5.01.02v2ZM1121.08,846.56v-2s5,0,5,0v2s-5,0-5,0ZM1136.09,846.56h-5s0-2,0-2h5s0,2,0,2Z"/>
      <g>
        <path class="cls-20" d="M452.26,776.51s11.26,233.29,19.41,237.22c8.15,3.93,296.05,9.96,300.84-1.84,4.78-11.8-8.14-220.69-18.08-226.15-9.95-5.45-302.8-21.86-302.16-9.23Z"/>
        <g class="cls-31">
          <polygon class="cls-8" points="522.02 762.72 439.3 895.46 451.07 972.44 539.68 867.57 470.27 1026.67 564.07 1029.54 638.45 856.9 595.36 1030.09 735.63 1027.08 777.05 863.49 776.1 768.53 745.51 766.94 704.04 929.29 725.38 764.37 616.87 758.14 571.24 880.27 602.36 757.7 522.02 762.72"/>
        </g>
      </g>
    </g>
    <g>
      <g>
        <path class="cls-25" d="M628.16,719.86s60.73-128.63,153.97-132.79c93.24-4.16,135.84,142.44,135.84,142.44l-131.09.81-158.72-10.46Z"/>
        <g class="cls-24">
          <path class="cls-14" d="M746.77,583.77s31.26,71.98,48.71,87.24c17.45,15.27,133.77,31.26,133.77,31.26l2.91,43.73s-164.31-12.65-185.39-11.1c-21.08,1.55-133.87-12.27-133.87-12.27,0,0,26.27-69.8,39.36-82.15,13.09-12.36,94.51-56.71,94.51-56.71Z"/>
        </g>
      </g>
      <path class="cls-19" d="M782.13,587.07s81.43-7.54,135.25,140.84c49.02,135.16,252.93,349.68,288.87,386.84,3.23,3.34,8.22,4.27,12.43,2.31,21.1-9.79,82.78-38.24,86.51-37.78,4.5.56,49.48-136.12,61.85-138.63,12.37-2.51,130.45-50.16,131.58-61.2,1.12-11.04-241.43-275.31-313.58-319.17-72.15-43.86-395.17,16.48-402.91,26.79Z"/>
      <g>
        <path class="cls-28" d="M812.8,577.74s64.36,14.14,109.37,99.16c45.01,85.02,60.01,140.13,129.19,218.43,69.18,78.3,157.21,196.66,172.79,192.49,15.58-4.17,65.01-24.62,66.68-28.78,1.67-4.17,38.6-122.74,46.93-129.41,8.34-6.67,132.03-56.93,130.36-60.17-1.67-3.24-207.56-239.23-222.56-249.23-15-10-80.47-74.75-130.65-75.05-50.18-.3-185.6-4.91-302.12,32.57Z"/>
        <g class="cls-35">
          <polygon class="cls-16" points="1380.69 734.9 1293.59 1139.07 1122.3 1127.39 1162.07 846.7 1088.52 1018.81 984.81 891.64 1077.64 639.8 948.57 837.56 806.05 633.03 1008.12 530.31 1223.67 537.61 1284.98 606.22 1237.62 868.54 1312.07 633.03 1380.69 734.9"/>
        </g>
      </g>
      <path class="cls-5" d="M1097.03,643.68c-20.64,17.25-22.13,50.51-16.7,74.9,5.67,25.47,19.55,50.21,39.7,67.01,20.52,17.11,53.03,28.78,78.17,14.66,10.95-6.15,18.92-16.93,22.96-28.82,12.3-36.26-5.96-73.51-30.88-99.59-22.49-23.54-57.21-53.81-90.43-30.32-.98.69-1.91,1.41-2.82,2.17Z"/>
    </g>
    <g>
      <path class="cls-15" d="M708.05,585.42H198.25c-6.65,0-12.78-5.39-13.69-12.05l-44.53-326.84c-.91-6.65,3.75-12.05,10.41-12.05h509.8c6.65,0,12.78,5.39,13.69,12.05l44.53,326.84c.91,6.65-3.75,12.05-10.41,12.05Z"/>
      <g>
        <path class="cls-12" d="M414.13,328.03h-221.63c-2.18,0-4.19-1.77-4.48-3.95l-6.43-47.22c-.3-2.18,1.23-3.95,3.41-3.95h221.63c2.18,0,4.19,1.77,4.48,3.95l6.43,47.22c.3,2.18-1.23,3.95-3.41,3.95Z"/>
        <g>
          <path class="cls-12" d="M215.33,357.98l6.26,9.95c.23.36.61.61,1.01.67l11.19,1.59c1.02.15,1.59,1.38.96,2.09l-6.89,7.74c-.25.28-.33.69-.2,1.08l3.36,10.93c.31,1-.64,1.76-1.6,1.29l-10.52-5.16c-.38-.19-.81-.19-1.14,0l-9.11,5.16c-.83.47-1.99-.29-1.95-1.29l.39-10.93c.01-.4-.17-.8-.5-1.08l-9-7.74c-.82-.71-.59-1.94.39-2.09l10.76-1.59c.39-.06.7-.31.83-.67l3.55-9.95c.33-.91,1.62-.91,2.2,0Z"/>
          <path class="cls-12" d="M284.18,357.98l6.26,9.95c.23.36.61.61,1.01.67l11.19,1.59c1.02.15,1.59,1.38.96,2.09l-6.89,7.74c-.25.28-.33.69-.2,1.08l3.36,10.93c.31,1-.64,1.76-1.6,1.29l-10.52-5.16c-.38-.19-.81-.19-1.14,0l-9.11,5.16c-.83.47-1.99-.29-1.95-1.29l.39-10.93c.01-.4-.17-.8-.5-1.08l-9-7.74c-.82-.71-.59-1.94.39-2.09l10.76-1.59c.39-.06.7-.31.83-.67l3.55-9.95c.33-.91,1.62-.91,2.2,0Z"/>
          <path class="cls-12" d="M353.04,357.98l6.26,9.95c.23.36.61.61,1.01.67l11.19,1.59c1.02.15,1.59,1.38.96,2.09l-6.89,7.74c-.25.28-.33.69-.2,1.08l3.36,10.93c.31,1-.64,1.76-1.6,1.29l-10.52-5.16c-.38-.19-.81-.19-1.14,0l-9.11,5.16c-.83.47-1.99-.29-1.95-1.29l.39-10.93c.01-.4-.17-.8-.5-1.08l-9-7.74c-.82-.71-.59-1.94.39-2.09l10.76-1.59c.39-.06.7-.31.83-.67l3.55-9.95c.33-.91,1.62-.91,2.2,0Z"/>
          <path class="cls-12" d="M421.9,357.98l6.26,9.95c.23.36.61.61,1.01.67l11.19,1.59c1.02.15,1.59,1.38.96,2.09l-6.89,7.74c-.25.28-.33.69-.2,1.08l3.36,10.93c.31,1-.64,1.76-1.6,1.29l-10.52-5.16c-.38-.19-.81-.19-1.14,0l-9.11,5.16c-.83.47-1.99-.29-1.95-1.29l.39-10.93c.01-.4-.17-.8-.5-1.08l-9-7.74c-.82-.71-.59-1.94.39-2.09l10.76-1.59c.39-.06.7-.31.83-.67l3.55-9.95c.33-.91,1.62-.91,2.2,0Z"/>
          <path class="cls-9" d="M490.75,357.98l6.26,9.95c.23.36.61.61,1.01.67l11.19,1.59c1.03.15,1.59,1.38.96,2.09l-6.89,7.74c-.25.28-.33.69-.2,1.08l3.36,10.93c.31,1-.64,1.76-1.6,1.29l-10.52-5.16c-.38-.19-.81-.19-1.14,0l-9.11,5.16c-.83.47-1.99-.29-1.95-1.29l.39-10.93c.01-.4-.17-.8-.5-1.08l-9-7.74c-.82-.71-.59-1.94.39-2.09l10.76-1.59c.39-.06.7-.31.83-.67l3.55-9.95c.33-.91,1.62-.91,2.2,0Z"/>
        </g>
        <g>
          <path class="cls-12" d="M613.66,447.03H207.81c-1.68,0-3.23-1.36-3.46-3.04l-2.48-18.2c-.23-1.68.95-3.04,2.63-3.04h405.85c1.68,0,3.23,1.36,3.46,3.04l2.48,18.2c.23,1.68-.95,3.04-2.63,3.04Z"/>
          <path class="cls-12" d="M619.22,487.81H213.37c-1.68,0-3.23-1.36-3.46-3.04l-2.48-18.2c-.23-1.68.95-3.04,2.63-3.04h405.85c1.68,0,3.23,1.36,3.46,3.04l2.48,18.2c.23,1.68-.95,3.04-2.63,3.04Z"/>
          <path class="cls-12" d="M425.46,528.58h-205.28c-2.38,0-4.57-1.93-4.89-4.3l-2.14-15.68c-.32-2.38,1.34-4.3,3.72-4.3h205.28c2.38,0,4.57,1.93,4.89,4.3l2.14,15.68c.32,2.38-1.34,4.3-3.72,4.3Z"/>
        </g>
      </g>
    </g>
    <g>
      <path class="cls-15" d="M1323.58,521.6h-488.37c-7.34,0-14.23-5.95-15.39-13.29l-18.42-116.65c-1.16-7.34,3.85-13.29,11.19-13.29h488.37c7.34,0,14.23,5.95,15.39,13.29l18.42,116.65c1.16,7.34-3.85,13.29-11.19,13.29Z"/>
      <g>
        <path class="cls-12" d="M876.52,446.72c-3.86-2.74-6.72-6.94-7.46-11.66-1.3-8.24,4.33-14.93,12.57-14.93s15.98,6.68,17.28,14.93c.75,4.72-.79,8.93-3.78,11.66,15.1,3.6,28.25,15.44,33.38,30.27,3.87-7.37,5.42-16.27,3.9-25.87-4-25.34-27.79-45.89-53.13-45.89s-42.65,20.55-38.64,45.89c1.51,9.6,5.87,18.5,12.07,25.87.45-14.83,9.86-26.67,23.82-30.27Z"/>
        <path class="cls-9" d="M893.76,497.02c15.75,0,28.39-7.94,34.74-20.02-5.13-14.83-18.28-26.67-33.38-30.27,2.99-2.74,4.53-6.94,3.78-11.66-1.3-8.24-9.04-14.93-17.28-14.93s-13.87,6.68-12.57,14.93c.75,4.72,3.61,8.93,7.46,11.66-13.96,3.6-23.37,15.44-23.82,30.27,10.17,12.09,25.32,20.02,41.06,20.02Z"/>
      </g>
      <g>
        <path class="cls-12" d="M1279.56,443.4h-291.41c-3.5,0-6.79-2.84-7.35-6.35l-4.52-28.63c-.55-3.5,1.84-6.35,5.34-6.35h291.41c3.5,0,6.79,2.84,7.35,6.35l4.52,28.63c.55,3.5-1.84,6.35-5.34,6.35Z"/>
        <path class="cls-12" d="M1288.16,497.9h-291.41c-3.5,0-6.79-2.84-7.35-6.35l-4.52-28.63c-.55-3.5,1.84-6.35,5.34-6.35h291.41c3.5,0,6.79,2.84,7.35,6.35l4.52,28.63c.55,3.5-1.84,6.35-5.34,6.35Z"/>
      </g>
      <g>
        <path class="cls-15" d="M1019.53,424.41c.6,3.83-2.01,6.93-5.83,6.93s-7.42-3.1-8.02-6.93c-.6-3.83,2.01-6.93,5.83-6.93s7.42,3.1,8.02,6.93Z"/>
        <path class="cls-15" d="M1053.31,424.41c.6,3.83-2.01,6.93-5.83,6.93s-7.42-3.1-8.02-6.93c-.6-3.83,2.01-6.93,5.83-6.93s7.42,3.1,8.02,6.93Z"/>
        <path class="cls-15" d="M1087.1,424.41c.6,3.83-2.01,6.93-5.83,6.93s-7.42-3.1-8.02-6.93c-.6-3.83,2.01-6.93,5.83-6.93s7.42,3.1,8.02,6.93Z"/>
        <path class="cls-15" d="M1120.89,424.41c.6,3.83-2.01,6.93-5.83,6.93s-7.42-3.1-8.02-6.93c-.6-3.83,2.01-6.93,5.83-6.93s7.42,3.1,8.02,6.93Z"/>
        <path class="cls-15" d="M1154.68,424.41c.6,3.83-2.01,6.93-5.83,6.93s-7.42-3.1-8.02-6.93c-.6-3.83,2.01-6.93,5.83-6.93s7.42,3.1,8.02,6.93Z"/>
        <path class="cls-15" d="M1188.47,424.41c.6,3.83-2.01,6.93-5.83,6.93s-7.42-3.1-8.02-6.93c-.6-3.83,2.01-6.93,5.83-6.93s7.42,3.1,8.02,6.93Z"/>
        <path class="cls-15" d="M1222.26,424.41c.6,3.83-2.01,6.93-5.83,6.93s-7.42-3.1-8.02-6.93c-.6-3.83,2.01-6.93,5.83-6.93s7.42,3.1,8.02,6.93Z"/>
        <path class="cls-15" d="M1256.05,424.41c.6,3.83-2.01,6.93-5.83,6.93s-7.42-3.1-8.02-6.93c-.6-3.83,2.01-6.93,5.83-6.93s7.42,3.1,8.02,6.93Z"/>
      </g>
      <g>
        <path class="cls-15" d="M1027.87,477.24c.6,3.83-2.01,6.93-5.83,6.93s-7.42-3.1-8.02-6.93c-.6-3.83,2.01-6.93,5.83-6.93s7.42,3.1,8.02,6.93Z"/>
        <path class="cls-15" d="M1061.65,477.24c.6,3.83-2.01,6.93-5.83,6.93s-7.42-3.1-8.02-6.93c-.6-3.83,2.01-6.93,5.83-6.93s7.42,3.1,8.02,6.93Z"/>
        <path class="cls-15" d="M1095.44,477.24c.6,3.83-2.01,6.93-5.83,6.93s-7.42-3.1-8.02-6.93c-.6-3.83,2.01-6.93,5.83-6.93s7.42,3.1,8.02,6.93Z"/>
        <path class="cls-15" d="M1129.23,477.24c.6,3.83-2.01,6.93-5.83,6.93s-7.42-3.1-8.02-6.93c-.6-3.83,2.01-6.93,5.83-6.93s7.42,3.1,8.02,6.93Z"/>
        <path class="cls-15" d="M1163.02,477.24c.6,3.83-2.01,6.93-5.83,6.93s-7.42-3.1-8.02-6.93c-.6-3.83,2.01-6.93,5.83-6.93s7.42,3.1,8.02,6.93Z"/>
        <path class="cls-15" d="M1196.81,477.24c.6,3.83-2.01,6.93-5.83,6.93s-7.42-3.1-8.02-6.93c-.6-3.83,2.01-6.93,5.83-6.93s7.42,3.1,8.02,6.93Z"/>
        <path class="cls-15" d="M1230.6,477.24c.6,3.83-2.01,6.93-5.83,6.93s-7.42-3.1-8.02-6.93c-.6-3.83,2.01-6.93,5.83-6.93s7.42,3.1,8.02,6.93Z"/>
        <path class="cls-15" d="M1264.39,477.24c.6,3.83-2.01,6.93-5.83,6.93s-7.42-3.1-8.02-6.93c-.6-3.83,2.01-6.93,5.83-6.93s7.42,3.1,8.02,6.93Z"/>
      </g>
    </g>
    <path class="cls-19" d="M1154.37,290.19c-1.3-1.26-1.89-3.06-1.58-4.84,3.26-19.02,27.84-119.41,96.33-150,64.1-28.63,142.39-85.22,153.25-91.43,10.85-6.2,30.66,69.72,41.51,72.82s59.22,33.26,63.57,45c4.36,11.74-158.96,66.64-172.52,96.1-13.55,29.46-33.49,97.68-41.35,100.79s-70.68-13.95-81.91-18.61c-9.84-4.08-48.03-40.82-57.31-49.83Z"/>
    <g>
      <path class="cls-28" d="M1162.29,282.27s24.49-90.36,64.6-120.12c40.11-29.76,65.99-36.23,95.32-54.35s78.93-54.35,80.22-51.76,25.45,62.54,29.33,64.7,66.42,37.52,67.28,40.54-156.57,55.64-170.8,86.26c-14.23,30.62-33.21,101.36-37.09,103.08-3.88,1.73-75.11-17.42-79.85-20.44-4.74-3.02-52.86-47.05-49.01-47.93Z"/>
      <g class="cls-32">
        <polygon class="cls-16" points="1388.74 47.56 1429.3 221.54 1354.82 272.48 1333.69 160.46 1334.94 291.66 1314.25 359 1232.4 228.24 1271.24 366.88 1195.52 336.64 1166.76 212.75 1215.33 136.05 1276.63 211.72 1257.46 113.93 1330.56 67.47 1360.72 141.95 1351.87 55.92 1388.74 47.56"/>
      </g>
    </g>
    <path class="cls-5" d="M1297.52,156.98c-.94.3-1.85.61-2.72.94-14.57,5.38-22.52,18.76-23.48,33.94-.44,6.98,1.18,14.22,5.31,19.87,4.97,6.79,13.7,10.35,21.99,9.75,9.35-.68,16.4-8.76,22.36-15.11,5.71-6.1,14.76-9.44,18-17.64,3.67-9.29,1.9-21.17-5.29-28.26-9.65-9.52-24.44-7.22-36.17-3.48Z"/>
    <g>
      <circle class="cls-18" cx="605.23" cy="1208.14" r="42.57"/>
      <circle class="cls-18" cx="744.9" cy="1208.14" r="42.57"/>
      <circle class="cls-18" cx="884.57" cy="1208.14" r="42.57"/>
      <circle class="cls-18" cx="1024.24" cy="1208.14" r="42.57"/>
    </g>
  </g>
  <g>
    <g>
      <ellipse class="cls-18" cx="2167.7" cy="648.06" rx="18.22" ry="21.14" transform="translate(258.48 1862.06) rotate(-49.1)"/>
      <ellipse class="cls-18" cx="2244.14" cy="648.05" rx="18.22" ry="21.14" transform="translate(284.88 1919.84) rotate(-49.1)"/>
      <ellipse class="cls-18" cx="2320.57" cy="648.04" rx="18.22" ry="21.14" transform="translate(311.29 1977.61) rotate(-49.1)"/>
      <ellipse class="cls-18" cx="2397.01" cy="648.02" rx="18.22" ry="21.14" transform="translate(337.67 2035.36) rotate(-49.1)"/>
    </g>
    <g>
      <ellipse class="cls-18" cx="2177.45" cy="713.37" rx="18.22" ry="21.14" transform="translate(212.48 1891.97) rotate(-49.1)"/>
      <ellipse class="cls-18" cx="2253.88" cy="713.35" rx="18.22" ry="21.14" transform="translate(238.88 1949.74) rotate(-49.1)"/>
      <path class="cls-18" d="M2350.04,713.34c1.61,10.78-5.92,19.53-16.81,19.53s-21.03-8.74-22.64-19.52c-1.61-10.78,5.92-19.53,16.81-19.53,10.89,0,21.03,8.74,22.64,19.52Z"/>
      <ellipse class="cls-18" cx="2406.75" cy="713.33" rx="18.22" ry="21.14" transform="translate(291.67 2065.27) rotate(-49.1)"/>
    </g>
    <g>
      <path class="cls-18" d="M2206.92,778.67c1.61,10.78-5.92,19.53-16.81,19.53-10.89,0-21.03-8.74-22.64-19.52-1.61-10.78,5.92-19.53,16.81-19.53,10.89,0,21.03,8.74,22.64,19.52Z"/>
      <ellipse class="cls-18" cx="2263.63" cy="778.66" rx="18.22" ry="21.14" transform="translate(192.88 1979.63) rotate(-49.09)"/>
      <path class="cls-18" d="M2359.79,778.64c1.61,10.78-5.92,19.53-16.81,19.53-10.89,0-21.03-8.74-22.64-19.52-1.61-10.78,5.92-19.53,16.81-19.53,10.89,0,21.03,8.74,22.64,19.52Z"/>
      <ellipse class="cls-18" cx="2416.5" cy="778.63" rx="18.22" ry="21.14" transform="translate(245.68 2095.18) rotate(-49.1)"/>
    </g>
    <g>
      <ellipse class="cls-18" cx="2196.94" cy="843.98" rx="18.22" ry="21.14" transform="translate(120.5 1951.79) rotate(-49.1)"/>
      <ellipse class="cls-18" cx="2273.37" cy="843.97" rx="18.22" ry="21.14" transform="translate(146.88 2009.53) rotate(-49.09)"/>
      <ellipse class="cls-18" cx="2349.81" cy="843.95" rx="18.22" ry="21.14" transform="translate(173.28 2067.3) rotate(-49.09)"/>
      <ellipse class="cls-18" cx="2426.24" cy="843.94" rx="18.22" ry="21.14" transform="translate(199.69 2125.09) rotate(-49.1)"/>
    </g>
  </g>
  <g>
    <g>
      <path class="cls-18" d="M125.68,811.35c1.12,7.5-4.11,13.58-11.69,13.58-7.58,0-14.62-6.08-15.74-13.57-1.12-7.5,4.11-13.58,11.69-13.58,7.58,0,14.62,6.08,15.74,13.57Z"/>
      <ellipse class="cls-18" cx="165.11" cy="811.34" rx="12.67" ry="14.7" transform="translate(-556.22 404.86) rotate(-49.1)"/>
      <ellipse class="cls-18" cx="218.25" cy="811.33" rx="12.67" ry="14.7" transform="translate(-537.87 445.03) rotate(-49.1)"/>
      <path class="cls-18" d="M285.11,811.32c1.12,7.5-4.11,13.58-11.69,13.58-7.58,0-14.62-6.08-15.74-13.57-1.12-7.5,4.11-13.58,11.69-13.58,7.58,0,14.62,6.08,15.74,13.57Z"/>
    </g>
    <g>
      <ellipse class="cls-18" cx="118.74" cy="856.76" rx="12.67" ry="14.7" transform="translate(-606.55 385.5) rotate(-49.1)"/>
      <path class="cls-18" d="M185.6,856.75c1.12,7.5-4.11,13.58-11.69,13.58-7.58,0-14.62-6.08-15.74-13.57-1.12-7.5,4.11-13.58,11.69-13.58,7.58,0,14.62,6.08,15.74,13.57Z"/>
      <path class="cls-18" d="M238.74,856.74c1.12,7.5-4.11,13.58-11.69,13.58-7.58,0-14.62-6.08-15.74-13.57-1.12-7.5,4.11-13.58,11.69-13.58,7.58,0,14.62,6.08,15.74,13.57Z"/>
      <ellipse class="cls-18" cx="278.17" cy="856.73" rx="12.67" ry="14.7" transform="translate(-551.49 505.99) rotate(-49.1)"/>
    </g>
    <g>
      <ellipse class="cls-18" cx="125.51" cy="902.17" rx="12.67" ry="14.7" transform="translate(-638.54 406.3) rotate(-49.1)"/>
      <path class="cls-18" d="M192.37,902.15c1.12,7.5-4.11,13.58-11.69,13.58-7.58,0-14.62-6.08-15.74-13.57-1.12-7.5,4.11-13.58,11.69-13.58,7.58,0,14.62,6.08,15.74,13.57Z"/>
      <path class="cls-18" d="M245.52,902.15c1.12,7.5-4.11,13.58-11.69,13.58-7.58,0-14.62-6.08-15.74-13.57-1.12-7.5,4.11-13.58,11.69-13.58,7.58,0,14.62,6.08,15.74,13.57Z"/>
      <ellipse class="cls-18" cx="284.95" cy="902.14" rx="12.67" ry="14.7" transform="translate(-583.48 526.8) rotate(-49.1)"/>
    </g>
    <g>
      <path class="cls-18" d="M146.01,947.57c1.12,7.5-4.11,13.58-11.69,13.58-7.58,0-14.62-6.08-15.74-13.57-1.12-7.5,4.11-13.58,11.69-13.58,7.58,0,14.62,6.08,15.74,13.57Z"/>
      <ellipse class="cls-18" cx="185.43" cy="947.57" rx="12.67" ry="14.7" transform="translate(-652.16 467.25) rotate(-49.1)"/>
      <ellipse class="cls-18" cx="238.58" cy="947.56" rx="12.67" ry="14.7" transform="translate(-633.81 507.43) rotate(-49.1)"/>
      <path class="cls-18" d="M305.44,947.54c1.12,7.5-4.11,13.58-11.69,13.58-7.58,0-14.62-6.08-15.74-13.57-1.12-7.5,4.11-13.58,11.69-13.58,7.58,0,14.62,6.08,15.74,13.57Z"/>
    </g>
  </g>
  <ellipse class="cls-18" cx="1871.48" cy="1555.1" rx="366.82" ry="30.29"/>
  <g>
    <g>
      <g>
        <path class="cls-21" d="M1505.62,819.87s-20.2,13.93-21.5,14.19c-1.3.26-57.14-.4-47.03,9.13,2.67,2.52,39.35,9.75,39.35,9.75l21.05,23.94,11.52-8.81,21.58-13.18-24.97-35.03Z"/>
        <g class="cls-37">
          <path class="cls-13" d="M1476.44,852.94s29.09,7.59,28.28,8.27c-.81.68-27.42-4.07-27.83-4.34-.41-.27-.45-3.93-.45-3.93"/>
        </g>
      </g>
      <g>
        <g>
          <path class="cls-23" d="M2047.55,1409.51l-105.26-434.66c19.87-75.72,37.78-166.64,19.49-218.61l-202.4,10.56s-22.96,102.28-17.38,251.26c1.98,52.83,46.1,423.42,46.1,423.42h96.71s-5.2-133.65-7.6-224.54l80.71,224.54,89.63-31.96Z"/>
          <g class="cls-27">
            <path class="cls-7" d="M2005.48,1426.14c-.6,0-1.16-.36-1.39-.95-5.54-13.97-135.65-342.45-138.73-372.05-3.07-29.52,12.25-273.8,12.9-284.19.05-.83.8-1.46,1.59-1.4.83.05,1.46.76,1.4,1.59-.16,2.54-15.96,254.42-12.91,283.69,3.03,29.19,137.18,367.84,138.54,371.26.3.77-.07,1.64-.84,1.95-.18.07-.37.11-.55.11Z"/>
            <path class="cls-7" d="M1834.02,1448.89c-.73,0-1.38-.54-1.48-1.29-.5-3.54-50.57-354.23-51.55-386.64-.98-32.36,1.95-271.83,1.98-274.24,0-.82.68-1.48,1.5-1.48h.02c.83.01,1.49.69,1.48,1.52-.03,2.41-2.96,241.81-1.98,274.11.98,32.25,51.02,382.77,51.52,386.31.12.82-.45,1.58-1.27,1.7-.07,0-.14.01-.21.01Z"/>
          </g>
        </g>
        <g>
          <path class="cls-7" d="M1968.93,795.3c-.42-17.21-7.56-42.72-7.56-42.72,0,0-124.92,22.65-151.7,19.37-26.77-3.28-50.3-5.15-50.3-5.15l-2.65,15.59s17.86,18.18,37.53,29.4l-.04-.02s8.59,118.17,11.9,151.3c3.31,33.13,13.07,73.43,13.07,73.43-5.94-25.47-7.79-217.33-7.79-217.33,24.99,6.54,157.53-23.87,157.53-23.87Z"/>
          <path class="cls-7" d="M1829.08,1090.7s19.71,184.41,50.67,210.08l-2.54-83.85-48.13-126.23Z"/>
        </g>
        <path class="cls-9" d="M1871.17,355.68s82.86,57.73,97.77,97.01c14.91,39.28-24.56,309.15-24.56,309.15,0,0-166.28,22.36-185,4.97-18.72-17.39-19.38-279.49-15.33-304.33,4.06-24.84,52.88-97.57,52.88-97.57l74.23-9.22Z"/>
        <path class="cls-19" d="M1796.94,364.9s-59.43,57.21-72.02,90.34h0c-.7,1.85-1.26,3.62-1.65,5.31-10.41,33.35-66.78,213.06-76.69,225.12-10.92,13.3-149.93,119.82-147.95,123.54,1.99,3.72,46.68,70.03,54.62,70.24,6.97.19,137.2-102.85,168.84-127.97,1.01,15.45,2.47,24.9,4.51,25.19,11.23,1.6,41.72-8.83,41.72-8.83,0,0,15.29-248.66,19.54-357.24,1.2-30.69,12.74-45.05,9.08-45.71Z"/>
        <path class="cls-11" d="M1606.68,595.96l-46.89.82c-1.7.03-3.32-1.48-3.62-3.37l-17.57-111.89c-.3-1.89.84-3.45,2.54-3.48l46.89-.82c1.7-.03,3.32,1.48,3.62,3.37l17.57,111.89c.3,1.89-.84,3.45-2.54,3.48Z"/>
        <path class="cls-10" d="M1629.86,573.12s-17.89-11.72-18.22-13.03c-.33-1.31-2.19-46.46-14.72-47.51-3.11-.26,1.2,28.47-1.09,28.8-2.29.33-49.24-12.6-50.85-11.47s-.7,11.38,4.43,14.84c0,0-5.24,8.64-.86,12.85l3.26,2.4s-4.23,6.18-1.8,9.74c2.43,3.56,5.02,4.53,5.02,4.53,0,0-3.72,2.59-2.91,7.12s3.03,8.52,7.83,11.22c4.8,2.7,31.48,5.61,31.48,5.61l21.6,14.22,16.86-39.32Z"/>
        <g>
          <g>
            <path class="cls-29" d="M1978.83,446.67c-19.45-39.12-60.11-83.74-107.67-90.99,0,0-.61,41.64-1.58,83.44-24.05,58.26-66.45,158.02-77.43,164.73-15.58,9.51-162.41-59.01-162.41-59.01l-38.03,88.68s170.16,87.65,223.43,97.55c18.85,3.5,45.47-18.46,71.77-50.24,8.76,57.16,17.78,105.92,20.78,105.92,6.61,0,82.16-15.11,85-20.78,2.85-5.67,9.87-271.58-13.86-319.29Z"/>
            <g class="cls-30">
              <path class="cls-14" d="M1812.94,678.32c-33.77,0-200.54-89.22-207.9-93.16-.73-.39-1-1.3-.61-2.03s1.3-1,2.03-.61c64.4,34.54,190.95,98.34,208.93,92.52,9.42-3.04,34.98-39.22,70.12-99.26,28.4-48.51,54.86-98.8,57.83-108.1.25-.79,1.1-1.22,1.89-.97.79.25,1.22,1.1.97,1.89-3.02,9.44-29.61,60.03-58.1,108.7-46.19,78.91-64.54,98.26-71.79,100.6-.9.29-2.04.43-3.37.43Z"/>
              <path class="cls-14" d="M1971.01,546.11c-.16,0-.33-.03-.49-.08-.78-.27-1.2-1.13-.93-1.91.14-.4,13.31-40.23-25.8-74.87-20.54-18.19-39.55-25.02-51.87-27.54-13.34-2.73-21.96-1.14-22.04-1.13-.82.15-1.6-.38-1.76-1.19-.16-.81.37-1.6,1.19-1.76,1.45-.28,36-6.48,76.48,29.36,21.22,18.8,27.35,38.99,28.76,52.62,1.52,14.81-1.96,25.05-2.11,25.47-.22.62-.8,1.01-1.42,1.01Z"/>
            </g>
          </g>
          <path class="cls-14" d="M1886.91,680.83s80.72-124.05,91.93-155.7c0,0-67.45,170.16-86.48,189.93l-5.45-34.23Z"/>
        </g>
        <path class="cls-9" d="M1779.39,473.45c0,3.61-2.93,6.54-6.54,6.54s-6.54-2.93-6.54-6.54,2.93-6.54,6.54-6.54,6.54,2.93,6.54,6.54Z"/>
        <path class="cls-9" d="M1774.77,525.13c0,3.61-2.93,6.54-6.54,6.54s-6.54-2.93-6.54-6.54,2.93-6.54,6.54-6.54,6.54,2.93,6.54,6.54Z"/>
        <path class="cls-9" d="M1774.77,576.8c0,3.61-2.93,6.54-6.54,6.54s-6.54-2.93-6.54-6.54,2.93-6.54,6.54-6.54,6.54,2.93,6.54,6.54Z"/>
        <path class="cls-14" d="M1728.32,583.38c.64-21.98,3.86-132.56,3.23-130.67-.7,2.1-19.44,128.07-19.44,128.07l16.1,6.39s20.02,8.79,50.03,15.77l.95-20.68s-16.51,11.22-50.87,1.12Z"/>
        <path class="cls-14" d="M1722.09,696.32l-66.43-31s52.91,31.88,51.48,37.21-2.33,62.64-2.33,62.64l17.28-13.69v-38.02l49.43,25.37,2.25-20.81-51.68-21.7Z"/>
        <g>
          <g>
            <path class="cls-21" d="M1843.16,197.88c-9.19-10.27-42.05-20.92-68.2-15.32-14.74,3.16-26,15.1-28.82,29.91-6.37,33.52-18.69,112.55,5.21,119.13,10.64,2.93,23,.09,34.79-5.42,2.95,20.22,13.77,66.16,15.67,72.29,2.67,8.62,75.03-29.54,69.36-42.79-3.85-8.98-39.71-68.25-39.71-68.25,5.3-13.88,24.49-75.27,11.7-89.55Z"/>
            <g class="cls-36">
              <path class="cls-13" d="M1739.92,232.66c.93-.23,19.81-5.8,24.13-11.36,0,0,5.91,5.54,16.58,2.85,10.67-2.69,30.38-16.37,30.38-16.37,0,0,.95,22.6,12.13,27.99,11.18,5.39,0,0,0,0,0,0-.48-37.13-4.58-38.61-4.1-1.48-79.21,1.15-81.31,6.9s2.67,28.6,2.67,28.6Z"/>
            </g>
          </g>
          <path class="cls-9" d="M1746.16,287.99s11.73,9.05,28.25-4.31c0,0-.85,12.99-12.39,15.06-15.22,2.72-15.86-10.75-15.86-10.75Z"/>
          <path class="cls-13" d="M1770.82,224.16s-28.72,38.56-22.44,42.68c6.29,4.13,26.32-5.17,26.32-5.17h0c-.22,2.76-2.04,5.13-4.65,6.05-7.56,2.66-22.22,7.2-25.36,1.17-5.51-10.59,26.12-44.72,26.12-44.72Z"/>
          <path class="cls-13" d="M1786.14,326.17s23.65-16.42,31.37-26.27c0,0-6.34,33.51-28.37,43.09l-2.99-16.82Z"/>
        </g>
        <path class="cls-3" d="M1814.64,203.79c.75-4.84-29.93,12.28-50.2,12.13-.99,0-2.18-.16-2.59-1.06-.23-.52-.11-1.12.04-1.67.76-2.8,2.14-5.43,4.01-7.65-9.12,8.7-19.96,15.59-31.7,20.16-3.04,1.18-6.2,2.22-9.46,2.19s-6.65-1.3-8.55-3.95c-1.38-1.93-1.83-4.35-2.04-6.71-1.03-11.86,3.61-23.89,11.59-32.72,7.98-8.83,19.08-14.56,30.72-17.02-7.01,7.33-17.68,13.05-27.75,14.25-1.69.2-3.48.29-5.01-.45-3.65-1.75-3.86-6.86-2.97-10.81,1.97-8.79,6.73-16.94,13.43-22.97,5.98-5.39,13.33-9.02,20.82-11.96,7.07-2.77,14.42-4.99,21.98-5.73,24.88-2.42,50.42,13.34,59.43,36.65.77-4.42,5.34-7.55,9.83-7.53,4.49.02,8.66,2.67,11.44,6.19s4.36,7.83,5.58,12.15c5.41,19.05,4.78,39.66-1.04,58.59-5.82,18.93-16.68,37.61-30.74,51.55,0,0-4.56-29.74-3.31-34.13,0,0,18.78-9.7,13.77-25.97-5.01-16.27-18.78,8.45-18.78,8.45,0,0-10.27-20.55-8.5-31.99Z"/>
      </g>
    </g>
    <g>
      <path class="cls-10" d="M1809.62,1441.48l5.02,43.6s20.58,12.55,32.13,11.55c11.55-1,20.08-13.55,20.08-13.55v-41.6h-57.23Z"/>
      <g>
        <path class="cls-23" d="M1814.57,1484.51s-102.05,50.45-104.2,56.19c-1.54,4.11-2.72,13.01-3.26,17.72-.18,1.6,1.13,2.97,2.74,2.86,23.03-1.66,167.88-12.2,170.52-14.84,2.87-2.87-2.15-51.29-3.95-54.87-1.79-3.59-9.58-8.5-9.58-8.5,0,0-21.53,22.21-52.27,1.44Z"/>
        <g class="cls-33">
          <path class="cls-7" d="M1737.91,1522.18s14.36,5.48,18.94,26.81c0,0,125.22-12.36,126.02-11.37.8,1,2.39,10.37-.2,10.97-2.59.6-169.29,17.15-173.67,15.55-4.39-1.6-5.38-1.2-5.38-4.39s2.39-21.14,4.98-23.33c2.59-2.19,29.31-14.25,29.31-14.25Z"/>
          <path class="cls-7" d="M1838.86,1504.87c-7.12,0-14.79-2.63-22.36-7.71-6.43-4.31-10.49-8.78-10.66-8.97l1.49-1.34c.16.18,16.13,17.69,34.11,15.89,18.09-1.81,32.87-16.98,33.01-17.14l1.44,1.38c-.62.65-15.42,15.86-34.26,17.74-.92.09-1.84.14-2.78.14Z"/>
        </g>
      </g>
      <path class="cls-7" d="M1795.66,1493.96s-13.72-22.74-31.35-24.88c-17.63-2.14-25.49,11.46-20.18,20.59,5.31,9.13,47.58,7.02,47.58,7.02,0,0-40.49-5.92-42-10.57-1.51-4.65,3.27-13.19,8.79-13.19s37.15,21.03,37.15,21.03Z"/>
      <path class="cls-7" d="M1794.17,1495.64s1.9-30.98,13.24-33.86c11.34-2.88,15.92,1.35,18.79,14.73,2.88,13.38-30.54,20.18-30.54,20.18,0,0,25.91-14.29,26.3-17.88.39-3.59-4.33-13.99-7.25-13.99s-11.03,1.61-11.98,4.27c-.95,2.66-6.12,25.51-8.57,26.56Z"/>
      <circle class="cls-7" cx="1849.26" cy="1523.71" r="11.03" transform="translate(-58.56 2973.42) rotate(-76.72)"/>
    </g>
    <g>
      <path class="cls-10" d="M1973.5,1428.99l18.92,39.6s23.54,5.18,34.14.47c10.59-4.7,14.58-19.35,14.58-19.35l-11.62-33.78-56.03,13.05Z"/>
      <g>
        <path class="cls-23" d="M1992.18,1468.08s-80.1,80.89-80.27,87.02c-.12,4.39,1.66,13.18,2.68,17.82.35,1.57,2.04,2.44,3.52,1.81,21.24-9.06,154.79-66.12,156.43-69.48,1.78-3.65-18.71-47.8-21.57-50.61-2.86-2.81-11.82-4.92-11.82-4.92,0,0-13.14,28-48.96,18.36Z"/>
        <g class="cls-38">
          <path class="cls-7" d="M1931.94,1528.63s15.36.51,26.63,19.2c0,0,114.4-52.4,115.48-51.72s5.63,9.03,3.38,10.44c-2.26,1.41-154.52,71.26-159.18,71.17-4.67-.08-5.48.62-6.52-2.4-1.04-3.02-4.61-20.77-2.87-23.68,1.74-2.92,23.09-23.01,23.09-23.01Z"/>
          <path class="cls-7" d="M2010.75,1481.16c-3.98,0-8.21-.58-12.63-1.75-7.48-1.98-12.77-4.9-12.99-5.02l.97-1.75c.21.12,21.03,11.47,37.42,3.94,16.52-7.59,25.56-26.75,25.65-26.94l1.81.84c-.38.81-9.43,20.01-26.62,27.92-4.01,1.84-8.6,2.77-13.61,2.77Z"/>
        </g>
      </g>
      <path class="cls-7" d="M1977.37,1483.16s-20.37-17.05-37.73-13.34c-17.37,3.71-20.38,19.12-12.39,26.03,7.99,6.91,47.27-8.83,47.27-8.83,0,0-40.21,7.57-43.15,3.66s-1.2-13.54,4.03-15.33c5.23-1.8,41.97,7.81,41.97,7.81Z"/>
      <path class="cls-7" d="M1976.5,1485.23s-8.28-29.92,1.51-36.33c9.79-6.41,15.49-3.89,22.56,7.82,7.07,11.71-22.32,29.01-22.32,29.01,0,0,19.85-21.94,19.06-25.46-.8-3.52-8.65-11.82-11.4-10.88s-9.91,5.11-9.94,7.93c-.03,2.83,2.51,26.12.53,27.9Z"/>
      <path class="cls-7" d="M2048.16,1490.28c1.98,5.76-1.08,12.03-6.84,14.02-5.76,1.98-12.03-1.08-14.02-6.84-1.98-5.76,1.08-12.03,6.84-14.02,5.76-1.98,12.03,1.08,14.02,6.84Z"/>
    </g>
  </g>
  <ellipse class="cls-18" cx="875.34" cy="1561.29" rx="480.92" ry="45.89"/>
  <g>
    <path class="cls-19" d="M1493.81,251.88c18.84,3.61,61.75,12.76,74.11,18.01,4.98,2.11,15.85,9.99,39.39,35.5,7.46,8.09,28.11,33.01,31.78,37.26,4.53,5.24-.96,2.73-17.05,17.48-2.16,1.98-5.48,4.1-6.53,5.24-1.01,4.9-4.71,20.77-4.88,21.48l-1.51,6.47-5.63-3.53c-4.16-2.61-11.41-8.18-19.79-14.62-15.57-11.96-39.09-30.04-47-31.56-3.36-.64-11.07-1.86-19.99-3.26-14.89-2.34-33.41-5.26-47.09-7.88-5.61-1.07-9.84-1.99-12.92-2.79-4.34-1.14-7.49-2.17-8.53-5.12-.6-1.71-.26-3.55.92-4.93,3.12-3.67,16.92-22.18,18.62-26.29.42-1.34.75-6.87,1.02-11.31.33-5.46.7-11.66,1.44-16.98,1.03-7.44,2.54-11.54,5.06-13.72,1.45-1.25,3.25-1.86,5.08-1.71,2.33.19,8.62,1.35,13.5,2.28Z"/>
    <g>
      <path class="cls-28" d="M1606.01,385.76c-12.31-7.72-55.11-44.27-68.42-46.82-13.31-2.55-87.69-12.96-84.89-16.26,2.8-3.29,17.38-22.58,19.42-27.63,2.04-5.05.71-41.32,7.8-40.72s71.26,13.6,86.14,19.92,63.85,62.53,65.84,68.23c1.99,5.7-20.2,17.54-20.91,21.24-.71,3.7-4.99,22.03-4.99,22.03Z"/>
      <g class="cls-22">
        <path class="cls-16" d="M1583.83,371.81s54.14-30.48,53.29-31.48c-.84-1-14.45-24.24-19.54-23.18-5.09,1.06-41.8,17.51-41.8,17.51,0,0,31.89-22.89,31.71-26.08-.18-3.19-21.44-26.52-26.11-25.9-4.67.62-30.7,17.61-30.7,17.61,0,0,14.17-33.67,6.93-36.19-7.24-2.52-30.3-6.75-30.3-6.75,0,0-69.6,74.57-67.77,75.87s36.16,8.06,38.16,7.5,35.37-30.36,35.37-30.36c0,0-18.78,32.78-16.14,34.8s30.69,8.91,31.53,9.45,38.98-12.62,38.98-12.62c0,0-20.65,17.83-17.09,20.98,3.57,3.15,13.46,8.83,13.46,8.83Z"/>
      </g>
    </g>
    <path class="cls-19" d="M1528.81,307.74c1.45-7.58,10.58-12.21,20.38-10.33,9.8,1.88,23.6,13.76,16.45,23.18-4.67,6.15-14.22.93-24.02-.94-9.8-1.88-14.26-4.33-12.81-11.91Z"/>
  </g>
</svg>